<?xml version="1.0" encoding="utf-8"?>
<!-- Generator: Adobe Illustrator 23.0.0, SVG Export Plug-In . SVG Version: 6.00 Build 0)  -->
<svg version="1.1" id="Capa_1" xmlns="http://www.w3.org/2000/svg" xmlns:xlink="http://www.w3.org/1999/xlink" x="0px" y="0px"
	 viewBox="0 0 512 512" style="enable-background:new 0 0 512 512;" xml:space="preserve">
<style type="text/css">
	.st0{fill:#AEADAA;}
</style>
<path class="st0" d="M479.2,91.9H32.8C14.7,91.9,0,77.2,0,59.1s14.7-32.8,32.8-32.8h446.4c18.1,0,32.8,14.7,32.8,32.8
	S497.3,91.9,479.2,91.9z"/>
<path class="st0" d="M479.9,288.8H217.4c-18.1,0-32.8-14.7-32.8-32.8s14.7-32.8,32.8-32.8h262.6c18.1,0,32.8,14.7,32.8,32.8
	S498.1,288.8,479.9,288.8z"/>
<path class="st0" d="M479.2,485.7H32.8C14.7,485.7,0,471.1,0,452.9s14.7-32.8,32.8-32.8h446.4c18.1,0,32.8,14.7,32.8,32.8
	C512,471.1,497.3,485.7,479.2,485.7z"/>
</svg>
